<svg id="Layer_1" data-name="Layer 1" xmlns="http://www.w3.org/2000/svg" viewBox="0 0 451.68 86.37"><defs><style>.cls-1{fill:#231f20;}.cls-2{fill:#ffe000;}.cls-3{fill:#febe18;}</style></defs><title>*CST_Logo_PMSU12</title><path class="cls-1" d="M51.78 86.18c-14.51 0-23.31-7.94-23.31-21.45v-6h16.62v6c0 3.6 2.11 6.2 5.83 6.2s5.46-2.23 5.46-6.2c0-5.83-5-10.17-11.16-15.87-7.44-6.2-16.24-14.38-16.24-25.67 0-12 7.81-23.19 23.43-23.19 12.65 0 21.33 9.18 21.33 21.33v5.33H57.1v-6c0-3.35-2-5.33-4.71-5.33s-5.08 1.86-5.08 5.46c0 6.57 5 9.92 11.28 15.87 7.69 6.82 16.12 14.63 16.12 26.29-.01 13.06-8.81 23.23-22.93 23.23zM104.22 86.18c-13.27 0-23.43-9.05-23.43-20.46v-64h19.22v64a4 4 0 0 0 4.22 4.09c2.48 0 4.46-1.49 4.46-4.09v-64h18.35v64c-.01 11.41-9.26 20.46-22.82 20.46zM169.08 84.32l-11.66-30.38-4.71-11.66v42h-16.86V1.74h16.86l10.91 30.75 4.46 11.78V1.74h16.7v82.58zM242 18.11v66.21h-19.09V18.11h-13.39V1.74h46v16.37zM261.48 84.32V1.74h19.1v82.58zM335.63 84.32V28.77l-3.35 20.34-6.2 35.21h-11.9l-5.7-35.21-3-20.34v55.55h-17V1.74h25l6 32.36 2 14.51 2-14.51 5.7-32.36h24.8v82.58zM361.92 84.32V1.74h40.42v16h-21.33v17.11h13.89v14.26h-13.89v18.35h21.33v16.86zM428.78 86.18c-14.51 0-23.31-7.94-23.31-21.45v-6h16.62v6c0 3.6 2.11 6.2 5.83 6.2s5.46-2.23 5.46-6.2c0-5.83-5-10.17-11.16-15.87-7.44-6.2-16.24-14.38-16.24-25.67 0-12 7.81-23.19 23.43-23.19 12.65 0 21.33 9.18 21.33 21.33v5.33h-16.66v-6c0-3.35-2-5.33-4.71-5.33s-5.08 1.86-5.08 5.46c0 6.57 5 9.92 11.28 15.87 7.69 6.82 16.12 14.63 16.12 26.29-.01 13.06-8.81 23.23-22.91 23.23z"/><circle class="cls-1" cx="201.59" cy="46.57" r="21.33"/><path class="cls-2" d="M218.83 46.59a17.21 17.21 0 1 0-17.22 17.16 17.19 17.19 0 0 0 17.22-17.16m2.76 1.69a1.07 1.07 0 0 0 0 .13.64.64 0 0 0 0 .14 8.81 8.81 0 0 1-.17 1.45 19.76 19.76 0 0 1-1 3.55 20 20 0 0 1-15.39 12.74 18.9 18.9 0 0 1-2.11.24c-.54 0-1.09.06-1.64 0s-1.14 0-1.7-.11-1-.12-1.52-.21a19.57 19.57 0 0 1-3.28-.83 20 20 0 0 1-11.82-11.57 19.59 19.59 0 0 1-1-3.64 20.56 20.56 0 0 1-.29-2.45v-1.63c0-.72.08-1.43.17-2.15a19.72 19.72 0 0 1 1.56-5.5 20.06 20.06 0 0 1 12.49-11 19.53 19.53 0 0 1 2.61-.6c.46-.07.92-.12 1.38-.18h.7a.39.39 0 0 0 .23-.05h1.74a.68.68 0 0 0 .37.06 13.76 13.76 0 0 1 1.73.17 19 19 0 0 1 1.94.39 20 20 0 0 1 14.51 14.54 13.93 13.93 0 0 1 .47 2.91.61.61 0 0 0 .06.23z"/><path class="cls-2" d="M212.29 46.56a10.69 10.69 0 1 0-10.67 10.68 10.69 10.69 0 0 0 10.67-10.68m2.81 0a13.51 13.51 0 1 1-13.38-13.53 13.51 13.51 0 0 1 13.38 13.53"/><path class="cls-3" d="M208.11 46.59a6.52 6.52 0 1 0-6.52 6.49 6.52 6.52 0 0 0 6.52-6.49"/><path class="cls-2" d="M208.11 46.59a6.52 6.52 0 1 1-6.5-6.52 6.49 6.49 0 0 1 6.5 6.52"/><path class="cls-1" d="M20.88 80.38c0 3.42-2.19 6-5.49 6h-9.9c-3.27 0-5.49-2.55-5.49-6a5 5 0 0 1 5.22-5.34h2.64v4h-2.7a1.16 1.16 0 0 0-1.2 1.29 1.14 1.14 0 0 0 1.2 1.26h10.56a1.14 1.14 0 0 0 1.2-1.26 1.16 1.16 0 0 0-1.2-1.29h-2.7v-4h2.64a5 5 0 0 1 5.22 5.34zM20.43 65.67h-7.65v2.71h7.62V73H.4v-4.62h8.38v-2.7H.45v-4.6h20zM20.43 58.71h-20v-4.62h20zM20.88 45.9c0 3.42-2.19 6-5.49 6h-9.9c-3.27 0-5.49-2.55-5.49-6a5 5 0 0 1 5.22-5.34h2.64v4h-2.7a1.16 1.16 0 0 0-1.2 1.29 1.14 1.14 0 0 0 1.2 1.26h10.56a1.14 1.14 0 0 0 1.2-1.26 1.16 1.16 0 0 0-1.2-1.29h-2.7v-4h2.64a5 5 0 0 1 5.22 5.34zM20.43 32.16l-3 .3v2.73l3 .42v4.17l-20-3.48v-5.34l20-3.42zm-13.65 1.5l7.26 1v-1.8zM20.43 17.52l-1.65.51a3.77 3.77 0 0 1 2.1 3.42 4.86 4.86 0 0 1-5 5.1H5.01c-2.52 0-5-2.37-5-5.82s2.46-5.67 5-5.67h2.91v4.41H5.01a1 1 0 0 0-1 1.17 1.05 1.05 0 0 0 1 1.2H15.9a1.12 1.12 0 0 0 1.08-1.23 1.09 1.09 0 0 0-1.08-1.23h-2.52v1.26h-3v-5.7h10zM20.88 7.11c0 3.27-2.1 5.79-5.22 5.79H5.22C2.13 12.9.03 10.38.03 7.11s2.1-5.76 5.19-5.76h10.44c3.12.03 5.22 2.52 5.22 5.76zM4.95 6.06a1 1 0 0 0-1 1.05 1 1 0 0 0 1 1.08h11a1 1 0 0 0 1-1.08 1 1 0 0 0-1-1.05z"/></svg>