<svg id="Layer_1" data-name="Layer 1" xmlns="http://www.w3.org/2000/svg" viewBox="0 0 451.68 86.37"><defs><style>.cls-1{fill:#fff;}.cls-2{fill:none;}.cls-3{fill:#fed10a;}.cls-4{fill:#febe18;}</style></defs><title>R2_FINAL_CST Masthead Logo_REV_090915</title><path class="cls-1" d="M138,243.8c-14.51,0-23.31-7.94-23.31-21.45v-6h16.62v6c0,3.6,2.11,6.2,5.83,6.2s5.46-2.23,5.46-6.2c0-5.83-5-10.17-11.16-15.87-7.44-6.2-16.24-14.38-16.24-25.67,0-12,7.81-23.19,23.43-23.19,12.65,0,21.33,9.18,21.33,21.33v5.33H143.32v-6c0-3.35-2-5.33-4.71-5.33s-5.08,1.86-5.08,5.46c0,6.57,5,9.92,11.28,15.87,7.69,6.82,16.12,14.63,16.12,26.29C160.92,233.63,152.12,243.8,138,243.8Z" transform="translate(-86.22 -157.62)"/><path class="cls-1" d="M190.44,243.8c-13.27,0-23.43-9.05-23.43-20.46v-64h19.22v64a4,4,0,0,0,4.22,4.09c2.48,0,4.46-1.49,4.46-4.09v-64h18.35v64C213.25,234.75,204,243.8,190.44,243.8Z" transform="translate(-86.22 -157.62)"/><path class="cls-1" d="M255.3,241.94l-11.66-30.38-4.71-11.66v42H222.07V159.36h16.86l10.91,30.75,4.46,11.78V159.36H271v31.56s-4.93,5.86-4.94,13.11A22.82,22.82,0,0,0,271,218.24v23.69Z" transform="translate(-86.22 -157.62)"/><path class="cls-1" d="M328.22,175.73v66.21H309.13V175.73H295.74V159.36h46v16.37Z" transform="translate(-86.22 -157.62)"/><path class="cls-1" d="M347.7,241.94V159.36H366.8v82.58Z" transform="translate(-86.22 -157.62)"/><path class="cls-1" d="M421.85,241.94V186.39l-3.35,20.33-6.2,35.21H400.4l-5.7-35.21-3-20.33v55.55h-17V159.36h25l6,32.36,2,14.51,2-14.51,5.7-32.36h24.8v82.58Z" transform="translate(-86.22 -157.62)"/><path class="cls-1" d="M448.14,241.94V159.36h40.42v16H467.23v17.11h13.89v14.26H467.23v18.35h21.33v16.86Z" transform="translate(-86.22 -157.62)"/><path class="cls-1" d="M515,243.8c-14.51,0-23.31-7.94-23.31-21.45v-6h16.62v6c0,3.6,2.11,6.2,5.83,6.2s5.46-2.23,5.46-6.2c0-5.83-5-10.17-11.16-15.87-7.44-6.2-16.24-14.38-16.24-25.67,0-12,7.81-23.19,23.43-23.19,12.65,0,21.33,9.18,21.33,21.33v5.33H520.3v-6c0-3.35-2-5.33-4.71-5.33s-5.08,1.86-5.08,5.46c0,6.57,5,9.92,11.28,15.87,7.69,6.82,16.12,14.63,16.12,26.29C537.9,233.63,529.1,243.8,515,243.8Z" transform="translate(-86.22 -157.62)"/><circle class="cls-2" cx="201.2" cy="46.96" r="21.33"/><path class="cls-3" d="M304.66,204.6a17.21,17.21,0,1,0-17.22,17.16,17.19,17.19,0,0,0,17.22-17.16m2.76,1.69a1.06,1.06,0,0,0,0,.13.64.64,0,0,0,0,.14,8.81,8.81,0,0,1-.17,1.45,19.77,19.77,0,0,1-1,3.55,20,20,0,0,1-15.39,12.74,18.9,18.9,0,0,1-2.11.24c-.55,0-1.09.06-1.64,0s-1.14,0-1.7-.11-1-.12-1.52-.21a19.58,19.58,0,0,1-3.29-.89,20,20,0,0,1-11.82-11.57,19.59,19.59,0,0,1-1-3.64,20.56,20.56,0,0,1-.29-2.45c0-.54-.05-1.09,0-1.63,0-.72.08-1.43.17-2.15a19.72,19.72,0,0,1,1.56-5.5,20.06,20.06,0,0,1,12.49-11,19.53,19.53,0,0,1,2.61-.6c.46-.07.92-.12,1.38-.17.23,0,.46,0,.7,0a.39.39,0,0,0,.23-.05h1.74a.68.68,0,0,0,.37.06,13.76,13.76,0,0,1,1.73.17,19,19,0,0,1,1.95.39,20,20,0,0,1,14.51,14.54,13.93,13.93,0,0,1,.47,2.91.61.61,0,0,0,.06.23Z" transform="translate(-86.22 -157.62)"/><path class="cls-3" d="M298.12,204.57a10.69,10.69,0,1,0-10.67,10.68,10.69,10.69,0,0,0,10.67-10.68m2.82,0a13.51,13.51,0,1,1-13.39-13.52,13.51,13.51,0,0,1,13.39,13.52" transform="translate(-86.22 -157.62)"/><path class="cls-4" d="M293.94,204.6a6.52,6.52,0,1,0-6.52,6.49,6.52,6.52,0,0,0,6.52-6.49" transform="translate(-86.22 -157.62)"/><path class="cls-3" d="M293.94,204.6a6.52,6.52,0,1,1-6.5-6.52,6.49,6.49,0,0,1,6.5,6.52" transform="translate(-86.22 -157.62)"/><path class="cls-1" d="M107.1,238c0,3.42-2.19,6-5.49,6h-9.9c-3.27,0-5.49-2.55-5.49-6a5,5,0,0,1,5.22-5.34h2.64v4h-2.7a1.16,1.16,0,0,0-1.2,1.29,1.14,1.14,0,0,0,1.2,1.26h10.56a1.14,1.14,0,0,0,1.2-1.26,1.16,1.16,0,0,0-1.2-1.29h-2.7v-4h2.64A5,5,0,0,1,107.1,238Z" transform="translate(-86.22 -157.62)"/><path class="cls-1" d="M106.65,223.29H99V226h7.62v4.62h-20V226H95v-2.7H86.67V218.7h20Z" transform="translate(-86.22 -157.62)"/><path class="cls-1" d="M106.65,216.33h-20v-4.62h20Z" transform="translate(-86.22 -157.62)"/><path class="cls-1" d="M107.1,203.52c0,3.42-2.19,6-5.49,6h-9.9c-3.27,0-5.49-2.55-5.49-6a5,5,0,0,1,5.22-5.34h2.64v4h-2.7a1.16,1.16,0,0,0-1.2,1.29,1.14,1.14,0,0,0,1.2,1.26h10.56a1.14,1.14,0,0,0,1.2-1.26,1.16,1.16,0,0,0-1.2-1.29h-2.7v-4h2.64A5,5,0,0,1,107.1,203.52Z" transform="translate(-86.22 -157.62)"/><path class="cls-1" d="M106.65,189.78l-3,.3v2.73l3,.42v4.17l-20-3.48v-5.34l20-3.42ZM93,191.28l7.26,1v-1.8Z" transform="translate(-86.22 -157.62)"/><path class="cls-1" d="M106.65,175.14l-1.65.51a3.77,3.77,0,0,1,2.1,3.42,4.86,4.86,0,0,1-5,5.1H91.23c-2.52,0-5-2.37-5-5.82s2.46-5.67,5-5.67h2.91v4.41H91.23a1,1,0,0,0-1,1.17,1.05,1.05,0,0,0,1,1.2h10.89a1.12,1.12,0,0,0,1.08-1.23,1.09,1.09,0,0,0-1.08-1.23H99.6v1.26h-3v-5.7h10Z" transform="translate(-86.22 -157.62)"/><path class="cls-1" d="M107.1,164.73c0,3.27-2.1,5.79-5.22,5.79H91.44c-3.09,0-5.19-2.52-5.19-5.79s2.1-5.76,5.19-5.76h10.44C105,159,107.1,161.49,107.1,164.73Zm-15.93-1.05a1,1,0,0,0-1,1.05,1,1,0,0,0,1,1.08h11a1,1,0,0,0,1-1.08,1,1,0,0,0-1-1.05Z" transform="translate(-86.22 -157.62)"/></svg>