<?xml version="1.0" encoding="utf-8"?>
<!-- Generator: Adobe Illustrator 18.0.0, SVG Export Plug-In . SVG Version: 6.00 Build 0)  -->
<!DOCTYPE svg PUBLIC "-//W3C//DTD SVG 1.1//EN" "http://www.w3.org/Graphics/SVG/1.1/DTD/svg11.dtd">
<svg version="1.1" id="Layer_1" xmlns="http://www.w3.org/2000/svg" xmlns:xlink="http://www.w3.org/1999/xlink" x="0px" y="0px"
	 viewBox="0 0 333.9 25" enable-background="new 0 0 333.9 25" xml:space="preserve">
<g>
	<defs>
		<rect id="SVGID_1_" width="333.9" height="25"/>
	</defs>
	<clipPath id="SVGID_2_">
		<use xlink:href="#SVGID_1_"  overflow="visible"/>
	</clipPath>
	<path clip-path="url(#SVGID_2_)" fill="#FFFFFF" d="M277.3,21.3l-0.1-5.3h1.3l0.9,4.4c1.4,0.6,3.3,0.9,5.3,0.9
		c3.4,0,4.4-1.1,4.4-4.1c0-2.8-1.4-3.5-4.9-4.4c-4.2-1.1-6.7-1.8-6.7-6.7c0-4.4,2.7-6.1,8.4-6.1c2.6,0,5,0.5,6.2,1.1l0.1,4.9h-1.3
		l-0.9-3.9c-0.8-0.4-2.6-0.7-4.1-0.7c-3.1,0-4.1,1-4.1,3.6c0,2.7,1.4,3.1,4.7,4c4.4,1.1,6.8,1.9,6.8,7c0,3.7-1.4,6.7-8.6,6.7
		C281.9,22.8,278.9,22.2,277.3,21.3 M270.1,11.3h-3.9v10h7.4l1-5.3h1.3l-0.1,6.6h-16v-1.3l2-0.1V1.7l-2-0.1V0.3h15.8l0.2,5.7h-1.3
		l-1-4.5h-7.2V10h3.9l0.2-3h1.4v7.5h-1.4L270.1,11.3z M235.8,2.7v18.4l2,0.2v1.3h-5.9v-1.3l2-0.2V1.7l-2-0.1V0.3h7.4l5.9,17.1
		l5.9-17.1h7.3v1.3l-2,0.1v19.5l2,0.1v1.3h-8.3v-1.3l2-0.1V2.8l-6.9,20h-2.5L235.8,2.7z M221.8,21.3l2.2-0.1V1.7l-2.2-0.1V0.3h8.7
		v1.3l-2.1,0.1v19.5l2.1,0.1v1.3h-8.7V21.3z M206.5,21.3l2.3-0.1V1.6H204L203,6h-1.3l0.2-5.7h18.5l0.2,5.7h-1.3l-1-4.4h-4.8v19.5
		l2.3,0.1v1.3h-9.1V21.3z M194.9,10.1h9.2v2h-9.2V10.1z M176.9,2.9v18.2l2.1,0.2v1.3h-6v-1.3l2-0.2V1.7l-2-0.1V0.3h7.1l9.9,15.9V1.7
		L188,1.6V0.3h5.8v1.3l-1.9,0.2v21H189L176.9,2.9z M153.8,16.4V1.7l-1.7-0.1V0.3h8.3v1.3l-2.2,0.1v15.1c0,2.7,0.7,4.3,5.5,4.3
		c4.3,0,5.2-2.1,5.2-4.3V1.7l-1.8-0.1V0.3h5.4v1.3l-1.6,0.1v14.7c0,3.2-1,6.4-7.9,6.4C155.2,22.8,153.8,20.3,153.8,16.4 M136.2,21.3
		l-0.1-5.3h1.3l0.9,4.4c1.4,0.6,3.3,0.9,5.3,0.9c3.4,0,4.4-1.1,4.4-4.1c0-2.8-1.4-3.5-4.9-4.4c-4.2-1.1-6.7-1.8-6.7-6.7
		c0-4.4,2.7-6.1,8.4-6.1c2.6,0,5,0.5,6.2,1.1L151,6h-1.3l-0.9-3.9c-0.8-0.4-2.6-0.7-4.1-0.7c-3.1,0-4.1,1-4.1,3.6
		c0,2.7,1.4,3.1,4.7,4c4.4,1.1,6.8,1.9,6.8,7c0,3.7-1.4,6.7-8.6,6.7C140.8,22.8,137.8,22.2,136.2,21.3 M125.5,11.3
		c0-6.5-1.1-9.9-6.1-9.9c-4.8,0-6,3.5-6,9.9c0,6.6,1.2,10,6.1,10C124.3,21.4,125.5,17.7,125.5,11.3 M108.9,11.5
		C108.9,4,112.5,0,119.5,0c6.9,0,10.5,3.8,10.5,11.2c0,7.5-3.6,11.6-10.6,11.6C112.5,22.8,108.9,18.8,108.9,11.5 M88.9,11.3
		c0-7.9,3-11.3,10.7-11.3c3.2,0,5,0.4,6.4,1l0.1,5h-1.3l-1.1-4c-0.8-0.4-2.1-0.6-4.3-0.6c-5.1,0-6,2.9-6,9.9c0,7,0.9,10,5.9,10
		c1.5,0,2.3-0.1,3.1-0.2v-7.7l-2.1-0.1V12h7.8v1.3l-1.6,0.1v8.7c-1.5,0.3-3.6,0.7-7.6,0.7C91.3,22.8,88.9,19.5,88.9,11.3 M81.2,13.5
		L78,4.1l-3.2,9.4H81.2z M68.8,21.3l1.5-0.2l7.3-21H81l7.3,21.1l1.5,0.1v1.3h-8.2v-1.3l2.3-0.1l-2.2-6.3h-7.3l-2.1,6.2l2.2,0.2v1.3
		h-5.6V21.3z M50.8,11.3c0-7.8,3-11.3,10.5-11.3c3.1,0,4.7,0.4,6.1,1l0.2,5h-1.4l-1-3.9c-0.8-0.4-2-0.6-4.1-0.6
		c-4.4,0-5.8,2.5-5.8,9.9s1.3,10,5.9,10c2,0,3.3-0.3,4.2-0.7l1-4.6h1.4l-0.2,5.4c-1.4,0.8-3.3,1.4-6.7,1.4
		C53.6,22.8,50.8,19.2,50.8,11.3 M41.8,21.3l2.2-0.1V1.7l-2.2-0.1V0.3h8.7v1.3l-2.1,0.1v19.5l2.1,0.1v1.3h-8.7V21.3z M32,21.3l2-0.1
		v-9.6h-9.3v9.6l2,0.1v1.3h-8.4v-1.3l2-0.1V1.7l-2-0.1V0.3h8.4v1.3l-2,0.1V10H34V1.7l-2-0.1V0.3h8.5v1.3l-2,0.1v19.5l2,0.1v1.3H32
		V21.3z M0,11.3C0,3.4,3,0,10.5,0c3.1,0,4.7,0.4,6.1,1l0.2,5h-1.4l-1-3.9c-0.8-0.4-2-0.6-4.1-0.6c-4.4,0-5.8,2.5-5.8,9.9
		s1.3,10,5.9,10c2,0,3.3-0.3,4.2-0.7l1-4.6H17l-0.2,5.4c-1.4,0.8-3.3,1.4-6.7,1.4C2.7,22.8,0,19.2,0,11.3"/>
	<path clip-path="url(#SVGID_2_)" fill="#FFFFFF" d="M299.4,17.6c0.5-3.7,2.3-4.6,4.9-4.6c2.8,0,3.6,0.9,3.4,2.4
		c-0.1,1.1-0.5,1.2-1.2,1.2c-0.9,0-1.2-0.3-1.1-1.2c0.1-0.5,0.3-0.9,0.5-1.3c-0.2-0.1-0.7-0.2-1.2-0.2c-1.6,0-2.1,0.6-2.6,3.9
		c-0.5,3.3-0.2,4,1.7,4c1.9,0,2.2-0.5,2.5-2.1h0.9c-0.5,2.6-1.5,3.1-3.7,3.1C300.3,22.7,298.8,21.5,299.4,17.6"/>
	<path clip-path="url(#SVGID_2_)" fill="#FFFFFF" d="M314.9,17.9c0.5-3.1,0.1-4-1.5-4c-1.5,0-2,0.8-2.4,3.9c-0.4,3.1-0.2,4,1.5,4
		C314,21.8,314.5,21,314.9,17.9 M308.2,17.6c0.5-3.5,2.3-4.6,5.1-4.6c3.3,0,4.8,1.6,4.3,5.1c-0.5,3.5-2.3,4.6-5.2,4.6
		C309.2,22.7,307.7,21.1,308.2,17.6"/>
	<path clip-path="url(#SVGID_2_)" fill="#FFFFFF" d="M319.1,14.2l-0.9-0.1l0.1-0.9h3.3l0,1.4c0.6-1,1.4-1.6,3.1-1.6
		c1.7,0,2.3,0.6,2.5,1.5c0.6-1,1.4-1.5,3.1-1.5c2.5,0,2.7,1.1,2.4,3.2l-0.7,4c-0.2,1.2-0.2,1.6,0.3,1.6c0.6,0,0.7-0.1,0.9-1.8h0.8
		c-0.2,2.4-0.7,2.7-2.4,2.7c-2.3,0-2.3-1.2-2.1-2.8l0.8-4.3c0.1-0.9,0.1-1.3-1-1.3c-1.4,0-1.9,0.9-2.3,3.4l-0.8,4.9h-2.6l1.2-7
		c0.2-0.9,0.1-1.3-1-1.3c-1.6,0-2.1,1.4-2.4,3.4l-0.7,4.9H318L319.1,14.2z"/>
	<path clip-path="url(#SVGID_2_)" fill="#34495E" d="M299.5,18.5c0,0,0.2-0.1,0.2,0c0,0-0.1,0.1-0.1,0.1l-2.3,2l2.3,2
		c0,0,0.1,0.1,0.1,0.1c0,0,0,0.1-0.1,0.1c0,0-0.1,0-0.2-0.1l-2.8-0.9l-0.6,3c0,0.1,0,0.2-0.1,0.2c-0.1,0-0.1-0.2-0.1-0.2l-0.6-2.9
		l-2.8,0.9c0,0-0.2,0.1-0.2,0c0,0,0.1-0.1,0.2-0.2l2.2-2l-2.3-2c0,0-0.1-0.1-0.1-0.1c0,0,0-0.1,0.1-0.1c0,0,0.2,0,0.2,0l2.8,1l0.6-3
		c0-0.1,0-0.2,0.1-0.2c0.1,0,0.1,0.2,0.1,0.2l0.6,3L299.5,18.5z"/>
</g>
</svg>
