<?xml version="1.0" encoding="utf-8"?>
<!-- Generator: Adobe Illustrator 18.0.0, SVG Export Plug-In . SVG Version: 6.00 Build 0)  -->
<!DOCTYPE svg PUBLIC "-//W3C//DTD SVG 1.1//EN" "http://www.w3.org/Graphics/SVG/1.1/DTD/svg11.dtd">
<svg version="1.1" id="Layer_1" xmlns="http://www.w3.org/2000/svg" xmlns:xlink="http://www.w3.org/1999/xlink" x="0px" y="0px"
	 viewBox="0 0 400 34" enable-background="new 0 0 400 34" xml:space="preserve">
<g>
	<defs>
		<rect id="SVGID_1_" width="400" height="34"/>
	</defs>
	<clipPath id="SVGID_2_">
		<use xlink:href="#SVGID_1_"  overflow="visible"/>
	</clipPath>
	<path clip-path="url(#SVGID_2_)" fill="#FFFFFF" d="M396.4,32.6c1-0.5,1.8-1.2,2.6-2.1c0.3-0.4,0.6-0.8,0.7-1.1s0.2-0.7,0.2-1
		c0-0.3-0.1-0.5-0.3-0.8c-0.2-0.2-0.4-0.3-0.7-0.3c-0.3,0-0.5,0.1-0.7,0.3c-0.2,0.2-0.4,0.6-0.7,1.3c-0.3,0.7-0.7,1.3-1.3,1.7
		c-1.3,1-2.9,1.6-4.8,1.6V10h2.7l3.1,0.1c0.3,0,0.7-0.1,0.9-0.2c0.3-0.2,0.4-0.4,0.4-0.7c0-0.7-0.5-1-1.5-1l-2.3,0.1h-3.3V0
		l-10.6,4.6v3.7h-0.4l-2.4-0.1c-1,0-1.4,0.3-1.4,1c0,0.6,0.4,1,1.3,1l2.8-0.1l0,15.6c0,5.7,3.2,8.5,9.7,8.5
		C392.7,34,394.7,33.6,396.4,32.6 M362.8,33.6h10.6V15.9c0-5.4-2.9-8.1-8.7-8.1c-3.6,0-6.7,1.5-9.5,4.5V8.2h-10.6v25.4h10.6V14.9
		c1-1.3,2.1-2.4,3.2-3.2c0.6-0.4,1.1-0.7,1.6-0.9c0.5-0.2,1-0.3,1.5-0.3c0.5,0,0.9,0.1,1.3,0.4V33.6z M329.8,20H323V9.8
		c0.8-0.2,1.9-0.3,3.2-0.3c1.3,0,2.6,0.1,3.6,0.5V20z M335.2,28.5c-0.2,0.2-0.5,0.6-0.9,1c-2.1,1.9-4.6,2.8-7.6,2.8
		c-1.4,0-2.7-0.1-3.8-0.3V21.8h16.3c0-0.6,0-1.2,0-1.7c0-3.7-1.3-6.7-4-9c-2.5-2.1-5.5-3.2-9.2-3.2c-4.6,0-8.2,1.3-10.9,3.9
		c-2.6,2.5-3.9,5.6-3.9,9.4c0,3.8,1.4,6.9,4.3,9.3c2.8,2.4,6.2,3.5,10.3,3.5c4.5,0,8.1-1.3,10.7-3.8c0.6-0.6,0.9-1.1,0.9-1.5
		c0-0.6-0.3-0.9-1-0.9C336,27.8,335.6,28,335.2,28.5 M291.6,11.7c0.5-0.4,1-0.7,1.5-0.9c0.5-0.2,1-0.3,1.6-0.3c0.6,0,1,0,1.1,0.1
		v23.1h10.6V15.9c0-2.7-0.7-4.8-2.1-6.1c-1.4-1.3-3.6-2-6.5-2c-1.7,0-3.4,0.4-5.1,1.2c-1.7,0.8-3.3,2-4.7,3.5
		c-1-3.2-3.8-4.7-8.2-4.7c-3.4,0-6.5,1.4-9.3,4.2V8.2h-10.6v25.4h10.6V14.7c0.5-0.6,1-1.2,1.5-1.7c1.7-1.7,3.2-2.5,4.5-2.5h0.8
		c0.2,0,0.5,0,0.6,0.1v23h10.6V15.9c0-0.4,0-0.8,0-1.1C289.4,13.5,290.4,12.5,291.6,11.7 M243.2,33.6h10.6V15.9
		c0-5.4-2.9-8.1-8.7-8.1c-3.6,0-6.7,1.5-9.5,4.5V8.2H225v25.4h10.6V14.9c1-1.3,2.1-2.4,3.2-3.2c0.6-0.4,1.1-0.7,1.6-0.9
		c0.5-0.2,1-0.3,1.5-0.3c0.5,0,0.9,0.1,1.3,0.4V33.6z M208.3,33.6h10.6V8.2h-10.6V33.6z M192.1,30c-2.1,1.5-4.3,2.3-6.6,2.3h-0.3
		c-0.1,0-0.2,0-0.3,0V17.2c0.3,0,0.6-0.1,0.9-0.1c2.1,0,4.1,0.5,6.2,1.4V30z M192.1,33.6h10.6V18.7c0-2.4-0.4-4.4-1.3-5.9
		c-2-3.4-6.7-5-14-5c-2.4,0-4.8,0.4-7.2,1.3c-1.2,0.4-2,0.8-2.5,1.2c-0.2,0.2-0.4,0.4-0.5,0.6c-0.1,0.2-0.1,0.4-0.1,0.6
		c0,0.2,0.1,0.4,0.3,0.6c0.2,0.2,0.5,0.3,0.9,0.3c0.4,0,0.8-0.2,1.3-0.6c0.8-0.7,1.9-1.2,3.5-1.7c0.7-0.2,1.5-0.3,2.2-0.4
		s1.8-0.1,2.9-0.1c1.1,0,2.5,0.2,4,0.6v6.5c-2.1-0.9-4.3-1.3-6.7-1.3c-3.5,0-6.4,0.9-8.6,2.6c-2.1,1.7-3.2,3.9-3.2,6.6
		c0,3,1.1,5.4,3.2,7.1c2.1,1.6,4.8,2.5,8.2,2.5c2.6,0,4.9-0.7,7-2V33.6z M166.8,32.6c1-0.5,1.8-1.2,2.6-2.1c0.3-0.4,0.6-0.8,0.7-1.1
		s0.2-0.7,0.2-1c0-0.3-0.1-0.5-0.3-0.8c-0.2-0.2-0.4-0.3-0.7-0.3c-0.3,0-0.5,0.1-0.7,0.3c-0.2,0.2-0.4,0.6-0.7,1.3
		c-0.3,0.7-0.7,1.3-1.3,1.7c-1.3,1-2.9,1.6-4.8,1.6V10h2.7l3.1,0.1c0.3,0,0.7-0.1,0.9-0.2c0.3-0.2,0.4-0.4,0.4-0.7
		c0-0.7-0.5-1-1.5-1l-2.3,0.1h-3.3V0l-10.6,4.6v3.7h-0.4l-2.4-0.1c-1,0-1.4,0.3-1.4,1c0,0.6,0.4,1,1.3,1l2.8-0.1l0,15.6
		c0,5.7,3.2,8.5,9.7,8.5C163.1,34,165.1,33.6,166.8,32.6 M124,33.6h10.6V23.5c0-3.1,0.7-5.9,2-8.5c0.6-1.1,1.1-1.9,1.8-2.5
		c0.6-0.6,1.1-0.9,1.5-0.9c0.4,0,0.8,0.1,1.4,0.3c0.3,0.1,0.8,0.2,1.4,0.2c0.4,0,0.8-0.2,1.3-0.6c0.2-0.2,0.4-0.4,0.5-0.7
		c0.1-0.3,0.2-0.6,0.2-1.1c0-0.5-0.2-0.9-0.7-1.2c-0.4-0.4-1-0.6-1.8-0.6c-1.3,0-2.6,0.6-3.9,1.9c-1.3,1.3-2.5,3.3-3.7,6V8.2H124
		V33.6z M109.3,20h-6.8V9.8c0.8-0.2,1.9-0.3,3.2-0.3c1.3,0,2.6,0.1,3.6,0.5V20z M114.7,28.5c-0.2,0.2-0.5,0.6-0.9,1
		c-2.1,1.9-4.6,2.8-7.6,2.8c-1.4,0-2.7-0.1-3.8-0.3V21.8h16.3c0-0.6,0-1.2,0-1.7c0-3.7-1.3-6.7-4-9c-2.5-2.1-5.5-3.2-9.2-3.2
		c-4.6,0-8.2,1.3-10.9,3.9c-2.6,2.5-3.9,5.6-3.9,9.4c0,3.8,1.4,6.9,4.3,9.3c2.8,2.4,6.2,3.5,10.3,3.5c4.5,0,8.1-1.3,10.7-3.8
		c0.6-0.6,0.9-1.1,0.9-1.5c0-0.6-0.3-0.9-1-0.9C115.4,27.8,115.1,28,114.7,28.5 M85.2,32.6c1-0.5,1.8-1.2,2.6-2.1
		c0.3-0.4,0.6-0.8,0.7-1.1s0.2-0.7,0.2-1c0-0.3-0.1-0.5-0.3-0.8c-0.2-0.2-0.4-0.3-0.7-0.3c-0.3,0-0.5,0.1-0.7,0.3
		c-0.2,0.2-0.4,0.6-0.7,1.3c-0.3,0.7-0.7,1.3-1.3,1.7c-1.3,1-2.9,1.6-4.8,1.6V10h2.7l3.1,0.1c0.3,0,0.7-0.1,0.9-0.2
		c0.3-0.2,0.4-0.4,0.4-0.7c0-0.7-0.5-1-1.5-1l-2.3,0.1h-3.3V0L69.7,4.6v3.7h-0.4l-2.4-0.1c-1,0-1.4,0.3-1.4,1c0,0.6,0.4,1,1.3,1
		l2.8-0.1l0,15.6c0,5.7,3.2,8.5,9.7,8.5C81.5,34,83.5,33.6,85.2,32.6 M51.6,33.6h10.6V15.9c0-5.4-2.9-8.1-8.7-8.1
		c-3.6,0-6.7,1.5-9.5,4.5V8.2H33.3v25.4h10.6V14.9c1-1.3,2.1-2.4,3.2-3.2c0.6-0.4,1.1-0.7,1.6-0.9c0.5-0.2,1-0.3,1.5-0.3
		c0.5,0,0.9,0.1,1.3,0.4V33.6z M18.6,20h-6.8V9.8c0.8-0.2,1.9-0.3,3.2-0.3s2.6,0.1,3.6,0.5V20z M24,28.5c-0.2,0.2-0.5,0.6-0.9,1
		c-2.1,1.9-4.6,2.8-7.6,2.8c-1.4,0-2.7-0.1-3.8-0.3V21.8H28c0-0.6,0-1.2,0-1.7c0-3.7-1.3-6.7-4-9c-2.5-2.1-5.5-3.2-9.2-3.2
		c-4.6,0-8.2,1.3-10.9,3.9C1.3,14.2,0,17.4,0,21.2c0,3.8,1.4,6.9,4.3,9.3c2.8,2.4,6.2,3.5,10.3,3.5c4.5,0,8.1-1.3,10.7-3.8
		c0.6-0.6,0.9-1.1,0.9-1.5c0-0.6-0.3-0.9-1-0.9C24.8,27.8,24.4,28,24,28.5"/>
</g>
</svg>
