<?xml version="1.0" encoding="utf-8"?>
<!-- Generator: Adobe Illustrator 18.0.0, SVG Export Plug-In . SVG Version: 6.00 Build 0)  -->
<!DOCTYPE svg PUBLIC "-//W3C//DTD SVG 1.1//EN" "http://www.w3.org/Graphics/SVG/1.1/DTD/svg11.dtd">
<svg version="1.1" id="Layer_1" xmlns="http://www.w3.org/2000/svg" xmlns:xlink="http://www.w3.org/1999/xlink" x="0px" y="0px"
	 width="204px" height="30px" viewBox="0 0 204 30" enable-background="new 0 0 204 30" xml:space="preserve">
<g>
	<defs>
		<rect id="SVGID_1_" width="204" height="30"/>
	</defs>
	<clipPath id="SVGID_2_">
		<use xlink:href="#SVGID_1_"  overflow="visible"/>
	</clipPath>
	<path clip-path="url(#SVGID_2_)" fill="#D22E42" d="M89.8,21.6l-4.2,4.2c2.9,2.8,6.6,4.2,11.2,4.2c6.2,0,10.1-3.1,10.5-7.2
		c0.1-0.8,0-1.5-0.3-2.2H92.5c3,1.1,6.2,1.5,6.1,2.6c-0.1,0.6-0.8,1-2.3,1C94.3,24.2,92,23.4,89.8,21.6 M67.2,20.6l0.2,1.8l1.1,7.2
		h9.1l3.6-9H67.2z M53.4,20.6l2,9h8.4l2.4-7.2l0.5-1.8H53.4z M26.5,20.6c-0.2,5.6,3.6,9.4,10.7,9.4c5.7,0,9.1-2.4,10.9-6.3l-5.2-2.5
		c-1.2,1.7-2.8,2.5-4.4,2.5c-1.8,0-2.6-0.7-2.5-2.2l0.1-0.9H26.5z M13.8,20.6l-0.8,9h9.5l0.8-9H13.8z M23.9,13.9
		c0.3-3.8-1.6-6.7-6-6.7c-2.9,0-5.3,1.5-7.3,4.2l0-3.8H1.9L0,29.6h9.6l0.5-5.6L6,20.4c0,0-1.2-1.1,0.2-2.2l5.4-4.2
		c0,0,0.2-0.1,0.3-0.2c0,0,0.1,0,0.1,0c0,0,0,0,0.1,0c0.2-0.1,0.5-0.1,0.7-0.1c1.1,0,1.5,0.8,1.4,2.2L14,18h9.5L23.9,13.9z
		 M39.7,15.7l-0.1,1.1h-3.3l0.1-1.1c0.1-1.2,0.6-2.4,1.8-2.4S39.9,14.5,39.7,15.7 M48.9,16.6c0.4-5.1-2.8-9.4-10-9.4
		c-7.2,0-11.6,4.3-12.1,10L26.7,18h22.1L48.9,16.6z M61.1,18l-0.2-2l-0.8-8.4h-9.6L52.8,18H61.1z M73.9,18l-0.2-2l-1-8.4h-7.9
		L62.1,16l-0.6,2H73.9z M82.2,18l4.2-10.4h-9L74.9,16l-0.5,2H82.2z M103.6,15.2l4.9-3.5c-2-2.6-5.3-4.5-10.4-4.5
		c-6.3,0-10.1,3.1-10.5,7.2c-0.1,1.5,0.3,2.7,1,3.6h16.4c-3.3-2.3-9-2.5-8.9-4.1c0.1-0.6,0.7-1,1.8-1C99.8,12.9,102,13.7,103.6,15.2
		"/>
	<path clip-path="url(#SVGID_2_)" fill="#666667" d="M155.1,20.6c-0.2,5.6,3.6,9.4,10.7,9.4c5.7,0,9.1-2.4,10.9-6.3l-5.2-2.5
		c-1.2,1.7-2.8,2.5-4.4,2.5c-1.8,0-2.6-0.7-2.5-2.2l0.1-0.9H155.1z M130.4,20.6c-0.2,5.6,3.6,9.4,10.7,9.4c5.7,0,9.1-2.4,10.9-6.3
		l-5.2-2.5c-1.2,1.7-2.8,2.5-4.4,2.5c-1.8,0-2.6-0.7-2.5-2.2l0.1-0.9H130.4z M114.3,20.6l-0.8,9h9.6l0.8-9H114.3z M128.8,5.8
		l0.5-5.8h-2.4c-7.8,0-10.9,2.9-11.4,8.1l0,0.3h-3.8l-0.5,6.1h3.6l-0.3,3.5h9.6l0.3-3.5h4.4l0.5-6.1h-4.5l0-0.3
		c0.1-1.6,0.9-2.3,3.2-2.3H128.8z M143.6,15.7l-0.1,1.1h-3.3l0.1-1.1c0.1-1.2,0.6-2.4,1.8-2.4S143.8,14.5,143.6,15.7 M152.8,16.6
		c0.4-5.1-2.8-9.4-10-9.4c-7.2,0-11.6,4.3-12.1,10l-0.1,0.8h22.1L152.8,16.6z M168.4,15.7l-0.1,1.1H165l0.1-1.1
		c0.1-1.2,0.6-2.4,1.8-2.4S168.5,14.5,168.4,15.7 M177.5,16.6c0.4-5.1-2.8-9.4-10-9.4c-7.2,0-11.6,4.3-12.1,10l-0.1,0.8h22.1
		L177.5,16.6z M204,0.3h-9.6l-0.8,8.7c-1.3-1.3-2.4-1.8-4.7-1.8c-4.5,0-8.3,3.8-8.7,8.7l-0.2,2.1h8.8l0.3-3.4
		c0.1-1.7,1.4-0.6,1.4-0.6l4.7,4.2c1.2,1.1-0.2,2.2-0.2,2.2l-5.5,4.2c-1.4,1.1-1.3-0.6-1.3-0.6l0.3-3.4h-8.8l0,0.2
		c-0.5,5.3,2.1,9.2,8,9.2c2.6,0,4.6-1.1,6.1-2.9l0,2.5h7.5L204,0.3z"/>
</g>
</svg>
