<?xml version="1.0" encoding="utf-8"?>
<!-- Generator: Adobe Illustrator 18.0.0, SVG Export Plug-In . SVG Version: 6.00 Build 0)  -->
<!DOCTYPE svg PUBLIC "-//W3C//DTD SVG 1.1//EN" "http://www.w3.org/Graphics/SVG/1.1/DTD/svg11.dtd">
<svg version="1.1" id="Layer_1" xmlns="http://www.w3.org/2000/svg" xmlns:xlink="http://www.w3.org/1999/xlink" x="0px" y="0px"
	 viewBox="0 0 153.1 30" enable-background="new 0 0 153.1 30" xml:space="preserve">
<g>
	<defs>
		<rect id="SVGID_1_" width="153.1" height="30"/>
	</defs>
	<clipPath id="SVGID_2_">
		<use xlink:href="#SVGID_1_"  overflow="visible"/>
	</clipPath>
	<path clip-path="url(#SVGID_2_)" fill="#34495E" d="M153.1,20.6c0-9.2-13.4-8.2-13.4-11.9c0-1.1,0.8-1.8,2.1-1.8
		c1.7,0,2.4,1.3,2.4,2.6v0.6h8.8V8.9c0-5-3.7-8.9-11.2-8.9c-8.3,0-11.6,4.3-11.6,9.3c0,9.2,13.4,8.6,13.4,11.9
		c0,1.2-0.8,1.8-2.3,1.8c-1.7,0-2.6-1.1-2.6-2.7v-0.4h-8.8v1.3c0,5,3.8,8.9,11.6,8.9C149.6,30,153.1,25.5,153.1,20.6 M128.3,8.4V0.8
		h-23.6v7.6h6.7v20.8h10.2V8.4H128.3z M92.7,11.7c0,1.1-0.5,1.7-1.7,1.7h-1.5V7.5H91c1.2,0,1.7,0.4,1.7,1.6V11.7z M103.7,29.2V29
		c-0.6-1.3-1.1-2.7-1.1-4.5v-3.7c0-2.7-1.2-4.8-4.4-5.3c3.1-0.7,4.4-2.7,4.4-5.5V8.2c0-4.8-3.6-7.4-9-7.4H79.3v28.4h10.1V18.6h1.1
		c1.9,0,2.3,0.9,2.3,2.6v3.6c0,2.2,0.9,4.4,2.2,4.4H103.7z M66,20c0,1.5-0.6,2.6-2.1,2.6s-2.1-1.1-2.1-2.6v-9.9
		c0-1.5,0.6-2.6,2.1-2.6S66,8.6,66,10.1V20z M76.3,18.7v-7.5c0-7-4.7-11.2-12.4-11.2c-7.7,0-12.5,4.2-12.5,11.2v7.5
		c0,7,4.7,11.3,12.5,11.3C71.6,30,76.3,25.8,76.3,18.7 M39.4,12.4c0,1.1-0.6,1.6-1.7,1.6h-1.6V7.5h1.6c1.2,0,1.7,0.5,1.7,1.6V12.4z
		 M49.2,11.7V8.7c0-4.8-3.5-8-8.9-8H26v28.4h10.2v-9.4h4.3C45.8,19.8,49.2,16.5,49.2,11.7 M23.3,20.6c0-9.2-13.4-8.2-13.4-11.9
		c0-1.1,0.8-1.8,2.1-1.8c1.7,0,2.4,1.3,2.4,2.6v0.6h8.8V8.9c0-5-3.7-8.9-11.2-8.9C3.6,0,0.3,4.3,0.3,9.3c0,9.2,13.4,8.6,13.4,11.9
		c0,1.2-0.8,1.8-2.3,1.8c-1.7,0-2.6-1.1-2.6-2.7v-0.4H0v1.3c0,5,3.8,8.9,11.6,8.9C19.8,30,23.3,25.5,23.3,20.6"/>
</g>
</svg>
