<?xml version="1.0" encoding="utf-8"?>
<!-- Generator: Adobe Illustrator 17.1.0, SVG Export Plug-In . SVG Version: 6.00 Build 0)  -->
<!DOCTYPE svg PUBLIC "-//W3C//DTD SVG 1.1//EN" "http://www.w3.org/Graphics/SVG/1.1/DTD/svg11.dtd">
<svg version="1.1" id="Layer_1" xmlns="http://www.w3.org/2000/svg" xmlns:xlink="http://www.w3.org/1999/xlink" x="0px" y="0px"
	 width="180.7px" height="13.5px" viewBox="0 0 180.7 13.5" enable-background="new 0 0 180.7 13.5" xml:space="preserve">
<g>
	<defs>
		<rect id="SVGID_1_" x="0" y="0" width="180.7" height="13.5"/>
	</defs>
	<clipPath id="SVGID_2_">
		<use xlink:href="#SVGID_1_"  overflow="visible"/>
	</clipPath>
	<path clip-path="url(#SVGID_2_)" fill="#FFFFFF" d="M150.1,11.5L150,8.7h0.7l0.5,2.4c0.7,0.3,1.8,0.5,2.8,0.5
		c1.8,0,2.4-0.6,2.4-2.2c0-1.5-0.7-1.9-2.7-2.4c-2.3-0.6-3.6-1-3.6-3.6c0-2.4,1.5-3.3,4.5-3.3c1.4,0,2.7,0.2,3.3,0.6l0.1,2.6h-0.7
		l-0.5-2.1c-0.5-0.2-1.4-0.4-2.2-0.4c-1.7,0-2.2,0.5-2.2,2c0,1.5,0.8,1.7,2.6,2.1c2.4,0.6,3.7,1,3.7,3.8c0,2-0.8,3.6-4.7,3.6
		C152.6,12.3,151,12,150.1,11.5 M146.2,6.1h-2.1v5.4h4l0.5-2.9h0.7l-0.1,3.6h-8.7v-0.7l1.1-0.1V0.9l-1.1-0.1V0.1h8.6l0.1,3.1h-0.7
		L148,0.8h-3.9v4.6h2.1l0.1-1.6h0.7v4h-0.7L146.2,6.1z M127.6,1.5v9.9l1.1,0.1v0.7h-3.2v-0.7l1.1-0.1V0.9l-1.1-0.1V0.1h4l3.2,9.2
		l3.2-9.2h3.9v0.7l-1.1,0.1v10.5l1.1,0.1v0.7h-4.5v-0.7l1.1-0.1V1.5l-3.7,10.8h-1.3L127.6,1.5z M120,11.5l1.2-0.1V0.9L120,0.9V0.1
		h4.7v0.7l-1.2,0.1v10.5l1.2,0.1v0.7H120V11.5z M111.8,11.5l1.3-0.1V0.9h-2.6l-0.5,2.4h-0.7l0.1-3.1h10l0.1,3.1h-0.7l-0.5-2.4h-2.6
		v10.6l1.3,0.1v0.7h-4.9V11.5z M105.5,5.5h5v1.1h-5V5.5z M95.8,1.6v9.9l1.2,0.1v0.7h-3.2v-0.7l1.1-0.1V0.9l-1.1-0.1V0.1h3.9l5.3,8.6
		V0.9l-1.1-0.1V0.1h3.1v0.7l-1,0.1v11.3h-1.5L95.8,1.6z M83.3,8.9v-8l-0.9-0.1V0.1h4.5v0.7l-1.2,0.1v8.2c0,1.5,0.4,2.3,3,2.3
		c2.3,0,2.8-1.1,2.8-2.3V0.9l-1-0.1V0.1h2.9v0.7l-0.9,0.1v8c0,1.7-0.5,3.4-4.3,3.4C84,12.3,83.3,11,83.3,8.9 M73.7,11.5l-0.1-2.9
		h0.7l0.5,2.4c0.7,0.3,1.8,0.5,2.8,0.5c1.8,0,2.4-0.6,2.4-2.2c0-1.5-0.7-1.9-2.7-2.4c-2.3-0.6-3.6-1-3.6-3.6c0-2.4,1.5-3.3,4.5-3.3
		c1.4,0,2.7,0.2,3.3,0.6l0.1,2.6H81l-0.5-2.1c-0.5-0.2-1.4-0.4-2.2-0.4c-1.7,0-2.2,0.5-2.2,2c0,1.5,0.8,1.7,2.6,2.1
		c2.4,0.6,3.7,1,3.7,3.8c0,2-0.8,3.6-4.7,3.6C76.2,12.3,74.6,12,73.7,11.5 M67.9,6.1c0-3.5-0.6-5.3-3.3-5.3c-2.6,0-3.2,1.9-3.2,5.4
		c0,3.6,0.6,5.4,3.3,5.4C67.3,11.6,67.9,9.6,67.9,6.1 M58.9,6.2c0-4,1.9-6.2,5.7-6.2c3.8,0,5.7,2.1,5.7,6.1c0,4-1.9,6.3-5.7,6.3
		C60.9,12.3,58.9,10.2,58.9,6.2 M48.1,6.1c0-4.3,1.6-6.1,5.8-6.1c1.7,0,2.7,0.2,3.4,0.6l0.1,2.7h-0.7l-0.6-2.2
		c-0.4-0.2-1.1-0.3-2.3-0.3c-2.7,0-3.3,1.6-3.3,5.3c0,3.8,0.5,5.4,3.2,5.4c0.8,0,1.3,0,1.7-0.1V7.2l-1.2-0.1V6.5h4.2v0.7l-0.9,0.1
		v4.7c-0.8,0.2-2,0.4-4.1,0.4C49.4,12.3,48.1,10.5,48.1,6.1 M43.9,7.3l-1.7-5.1l-1.7,5.1H43.9z M37.2,11.5l0.8-0.1l4-11.3h1.8
		l4,11.4l0.8,0.1v0.7h-4.4v-0.7l1.2-0.1L44.2,8h-4l-1.1,3.4l1.2,0.1v0.7h-3V11.5z M27.5,6.1c0-4.2,1.6-6.1,5.7-6.1
		c1.7,0,2.6,0.2,3.3,0.6l0.1,2.7h-0.7l-0.5-2.1c-0.4-0.2-1.1-0.4-2.2-0.4c-2.4,0-3.1,1.4-3.1,5.3s0.7,5.4,3.2,5.4
		c1.1,0,1.8-0.2,2.3-0.4L36,8.7h0.7l-0.1,2.9c-0.7,0.4-1.8,0.8-3.6,0.8C29,12.3,27.5,10.4,27.5,6.1 M22.6,11.5l1.2-0.1V0.9l-1.2-0.1
		V0.1h4.7v0.7l-1.2,0.1v10.5l1.2,0.1v0.7h-4.7V11.5z M17.3,11.5l1.1-0.1V6.2h-5.1v5.2l1.1,0.1v0.7H9.9v-0.7l1.1-0.1V0.9L9.9,0.9V0.1
		h4.6v0.7l-1.1,0.1v4.5h5.1V0.9l-1.1-0.1V0.1h4.6v0.7l-1.1,0.1v10.5l1.1,0.1v0.7h-4.6V11.5z M0,6.1C0,1.9,1.6,0,5.7,0
		C7.3,0,8.2,0.2,9,0.6l0.1,2.7H8.3L7.8,1.1C7.4,0.9,6.7,0.8,5.6,0.8c-2.4,0-3.1,1.4-3.1,5.3s0.7,5.4,3.2,5.4c1.1,0,1.8-0.2,2.3-0.4
		l0.5-2.5h0.7l-0.1,2.9c-0.7,0.4-1.8,0.8-3.6,0.8C1.5,12.3,0,10.4,0,6.1"/>
	<path clip-path="url(#SVGID_2_)" fill="#FFFFFF" d="M162.1,9.5c0.3-2,1.3-2.5,2.6-2.5c1.5,0,1.9,0.5,1.9,1.3
		c-0.1,0.6-0.2,0.7-0.6,0.7c-0.5,0-0.7-0.2-0.6-0.7c0-0.3,0.1-0.5,0.3-0.7c-0.1-0.1-0.4-0.1-0.6-0.1c-0.8,0-1.1,0.3-1.4,2.1
		c-0.2,1.8-0.1,2.2,0.9,2.2c1,0,1.2-0.2,1.3-1.1h0.5c-0.2,1.4-0.8,1.7-2,1.7C162.5,12.3,161.8,11.6,162.1,9.5"/>
	<path clip-path="url(#SVGID_2_)" fill="#FFFFFF" d="M170.4,9.7c0.2-1.7,0.1-2.2-0.8-2.2c-0.8,0-1.1,0.4-1.3,2.1
		c-0.2,1.7-0.1,2.1,0.8,2.1C169.9,11.8,170.2,11.4,170.4,9.7 M166.8,9.5c0.3-1.9,1.2-2.5,2.8-2.5c1.8,0,2.6,0.8,2.3,2.8
		c-0.3,1.9-1.2,2.5-2.8,2.5C167.3,12.3,166.6,11.4,166.8,9.5"/>
	<path clip-path="url(#SVGID_2_)" fill="#FFFFFF" d="M172.7,7.7l-0.5,0l0.1-0.5h1.8l0,0.8c0.3-0.5,0.8-0.9,1.7-0.9s1.3,0.3,1.3,0.8
		c0.3-0.5,0.8-0.8,1.7-0.8c1.3,0,1.5,0.6,1.3,1.7l-0.4,2.2c-0.1,0.7-0.1,0.8,0.2,0.8c0.3,0,0.4,0,0.5-1h0.4
		c-0.1,1.3-0.4,1.5-1.3,1.5c-1.2,0-1.3-0.7-1.1-1.5l0.4-2.3c0.1-0.5,0.1-0.7-0.5-0.7c-0.7,0-1,0.5-1.3,1.8l-0.5,2.7H175l0.6-3.8
		c0.1-0.5,0.1-0.7-0.5-0.7c-0.9,0-1.1,0.7-1.3,1.8l-0.4,2.7h-1.4L172.7,7.7z"/>
	<path clip-path="url(#SVGID_2_)" fill="#D12E42" d="M162.1,10c0,0,0.1-0.1,0.1,0C162.2,10.1,162.2,10.1,162.1,10l-1.2,1.2l1.2,1.1
		c0,0,0.1,0,0.1,0.1c0,0,0,0,0,0c0,0-0.1,0-0.1,0l-1.5-0.5l-0.3,1.6c0,0,0,0.1-0.1,0.1c-0.1,0-0.1-0.1-0.1-0.1l-0.3-1.6l-1.5,0.5
		c0,0-0.1,0.1-0.1,0c0,0,0.1-0.1,0.1-0.1l1.2-1.1l-1.3-1.1c0,0-0.1,0-0.1-0.1c0,0,0,0,0,0c0,0,0.1,0,0.1,0l1.5,0.5l0.3-1.6
		c0,0,0-0.1,0.1-0.1c0,0,0,0.1,0,0.1l0.3,1.6L162.1,10z"/>
</g>
</svg>
